<svg width="32" height="33" viewBox="0 0 32 33" fill="none" xmlns="http://www.w3.org/2000/svg">
<g clip-path="url(#clip0_104_60)">
<path d="M32 16.5C32 7.66344 25.0472 0.5 16.4706 0.5C7.89391 0.5 0.941162 7.66344 0.941162 16.5C0.941162 24.4859 6.62001 31.1053 14.0441 32.3056V21.125H10.1011V16.5H14.0441V12.975C14.0441 8.965 16.3626 6.75 19.9098 6.75C21.6083 6.75 23.386 7.0625 23.386 7.0625V11H21.4279C19.4988 11 18.897 12.2334 18.897 13.5V16.5H23.204L22.5155 21.125H18.897V32.3056C26.3211 31.1053 32 24.4859 32 16.5Z" fill="black"/>
<path d="M22.5155 21.125L23.204 16.5H18.897V13.5C18.897 12.2347 19.4988 11 21.4278 11H23.386V7.0625C23.386 7.0625 21.6089 6.75 19.9098 6.75C16.3626 6.75 14.0441 8.965 14.0441 12.975V16.5H10.1011V21.125H14.0441V32.3056C15.652 32.5648 17.2892 32.5648 18.897 32.3056V21.125H22.5155Z" fill="white"/>
</g>
<defs>
<clipPath id="clip0_104_60">
<rect width="31.0588" height="32" fill="white" transform="translate(0.941162 0.5)"/>
</clipPath>
</defs>
</svg>
