<svg width="31" height="32" viewBox="0 0 32 33" fill="none" xmlns="http://www.w3.org/2000/svg">
<g clip-path="url(#clip0_104_63)">
<path d="M16 3.38125C20.275 3.38125 20.7813 3.4 22.4625 3.475C24.025 3.54375 24.8688 3.80625 25.4313 4.025C26.175 4.3125 26.7125 4.6625 27.2688 5.21875C27.8313 5.78125 28.175 6.3125 28.4625 7.05625C28.6813 7.61875 28.9438 8.46875 29.0125 10.025C29.0875 11.7125 29.1063 12.2188 29.1063 16.4875C29.1063 20.7625 29.0875 21.2688 29.0125 22.95C28.9438 24.5125 28.6813 25.3563 28.4625 25.9188C28.175 26.6625 27.825 27.2 27.2688 27.7563C26.7063 28.3188 26.175 28.6625 25.4313 28.95C24.8688 29.1688 24.0188 29.4313 22.4625 29.5C20.775 29.575 20.2688 29.5938 16 29.5938C11.725 29.5938 11.2188 29.575 9.5375 29.5C7.975 29.4313 7.13125 29.1688 6.56875 28.95C5.825 28.6625 5.2875 28.3125 4.73125 27.7563C4.16875 27.1938 3.825 26.6625 3.5375 25.9188C3.31875 25.3563 3.05625 24.5063 2.9875 22.95C2.9125 21.2625 2.89375 20.7563 2.89375 16.4875C2.89375 12.2125 2.9125 11.7063 2.9875 10.025C3.05625 8.4625 3.31875 7.61875 3.5375 7.05625C3.825 6.3125 4.175 5.775 4.73125 5.21875C5.29375 4.65625 5.825 4.3125 6.56875 4.025C7.13125 3.80625 7.98125 3.54375 9.5375 3.475C11.2188 3.4 11.725 3.38125 16 3.38125ZM16 0.5C11.6563 0.5 11.1125 0.51875 9.40625 0.59375C7.70625 0.66875 6.5375 0.94375 5.525 1.3375C4.46875 1.75 3.575 2.29375 2.6875 3.1875C1.79375 4.075 1.25 4.96875 0.8375 6.01875C0.44375 7.0375 0.16875 8.2 0.09375 9.9C0.01875 11.6125 0 12.1562 0 16.5C0 20.8438 0.01875 21.3875 0.09375 23.0938C0.16875 24.7938 0.44375 25.9625 0.8375 26.975C1.25 28.0313 1.79375 28.925 2.6875 29.8125C3.575 30.7 4.46875 31.25 5.51875 31.6562C6.5375 32.05 7.7 32.325 9.4 32.4C11.1063 32.475 11.65 32.4937 15.9938 32.4937C20.3375 32.4937 20.8813 32.475 22.5875 32.4C24.2875 32.325 25.4563 32.05 26.4688 31.6562C27.5188 31.25 28.4125 30.7 29.3 29.8125C30.1875 28.925 30.7375 28.0313 31.1438 26.9813C31.5375 25.9625 31.8125 24.8 31.8875 23.1C31.9625 21.3938 31.9813 20.85 31.9813 16.5063C31.9813 12.1625 31.9625 11.6188 31.8875 9.9125C31.8125 8.2125 31.5375 7.04375 31.1438 6.03125C30.75 4.96875 30.2063 4.075 29.3125 3.1875C28.425 2.3 27.5313 1.75 26.4813 1.34375C25.4625 0.95 24.3 0.675 22.6 0.6C20.8875 0.51875 20.3438 0.5 16 0.5Z" fill="#000100"/>
<path d="M16 8.28125C11.4625 8.28125 7.78125 11.9625 7.78125 16.5C7.78125 21.0375 11.4625 24.7188 16 24.7188C20.5375 24.7188 24.2188 21.0375 24.2188 16.5C24.2188 11.9625 20.5375 8.28125 16 8.28125ZM16 21.8312C13.0563 21.8312 10.6687 19.4438 10.6687 16.5C10.6687 13.5563 13.0563 11.1687 16 11.1687C18.9438 11.1687 21.3312 13.5563 21.3312 16.5C21.3312 19.4438 18.9438 21.8312 16 21.8312Z" fill="#000100"/>
<path d="M26.4625 7.95635C26.4625 9.01885 25.6 9.8751 24.5438 9.8751C23.4813 9.8751 22.625 9.0126 22.625 7.95635C22.625 6.89385 23.4875 6.0376 24.5438 6.0376C25.6 6.0376 26.4625 6.9001 26.4625 7.95635Z" fill="#000100"/>
</g>
<defs>
<clipPath id="clip0_104_63">
<rect width="32" height="32" fill="white" transform="translate(0 0.5)"/>
</clipPath>
</defs>
</svg>
